<?xml version="1.0" encoding="UTF-8" standalone="no"?>
<svg width="613px" height="407px" viewBox="0 0 613 407" version="1.1" xmlns="http://www.w3.org/2000/svg" xmlns:xlink="http://www.w3.org/1999/xlink" xmlns:sketch="http://www.bohemiancoding.com/sketch/ns">
    <!-- Generator: Sketch 3.3 (11970) - http://www.bohemiancoding.com/sketch -->
    <title>Path 1 Copy</title>
    <desc>Created with Sketch.</desc>
    <defs></defs>
    <g id="Page-1" stroke="none" stroke-width="1" fill="none" fill-rule="evenodd" sketch:type="MSPage">
        <path d="M45.1914047,377.052307 C-1.49188258,341.731636 -6.43945291,266.905807 11,199.27944 C24.4316413,141.073775 63.585936,99.9995642 63.585936,99.9995642 C120.011717,33.9937048 215.751956,1.16093765 307.744804,1.0004524 C399.737651,0.839967142 489.347276,43.4105148 526.265608,76.448779 C548.789046,96.6050332 589.696597,146.351923 601.693343,199.279434 C623.783186,296.735901 607.701155,344.593308 564.999992,379.708181 C541.277044,399.216511 469.863295,427.56012 424.999985,379.708182 C400.684836,353.773248 376.366335,281.040582 307.744795,281.040588 C239.123255,281.040594 213.860975,352.853779 187.095702,379.708191 C140.072262,426.888237 72.9062508,398.021417 45.1914047,377.052307 Z" id="Path-1-Copy" stroke="#979797" stroke-width="2" sketch:type="MSShapeGroup" transform="translate(306.658438, 203.501544) rotate(-180.000000) translate(-306.658438, -203.501544) "></path>
    </g>
</svg>