<?xml version="1.0" encoding="UTF-8" standalone="no"?>
<svg width="613px" height="408px" viewBox="0 0 613 408" version="1.1" xmlns="http://www.w3.org/2000/svg" xmlns:xlink="http://www.w3.org/1999/xlink" xmlns:sketch="http://www.bohemiancoding.com/sketch/ns">
    <!-- Generator: Sketch 3.3 (11970) - http://www.bohemiancoding.com/sketch -->
    <title>Path 1</title>
    <desc>Created with Sketch.</desc>
    <defs></defs>
    <g id="Page-1" stroke="none" stroke-width="1" fill="none" fill-rule="evenodd" sketch:type="MSPage">
        <path d="M45.1914047,377.058603 C-1.49188258,341.737932 -6.43945291,266.912103 11,199.285736 C24.4316413,141.080071 63.585936,100.00586 63.585936,100.00586 C120.011717,34.0000009 215.751956,1.16723379 307.744804,1.00674853 C399.737651,0.846263277 489.347276,43.4168109 526.265608,76.4550752 C548.789046,96.6113293 589.696597,146.35822 601.693343,199.28573 C623.783186,296.742197 607.701155,344.599604 564.999992,379.714478 C541.277044,399.222807 469.863295,427.566416 424.999985,379.714478 C400.684836,353.779544 376.366335,281.046879 307.744795,281.046885 C239.123255,281.04689 213.860975,352.860075 187.095702,379.714487 C140.072262,426.894533 72.9062508,398.027713 45.1914047,377.058603 Z" id="Path-1" stroke="#979797" stroke-width="2" sketch:type="MSShapeGroup"></path>
    </g>
</svg>